<?xml version="1.0" encoding="utf-8"?>
<!-- Generator: Adobe Illustrator 16.0.0, SVG Export Plug-In . SVG Version: 6.00 Build 0)  -->
<!DOCTYPE svg PUBLIC "-//W3C//DTD SVG 1.1//EN" "http://www.w3.org/Graphics/SVG/1.1/DTD/svg11.dtd">
<svg version="1.1" id="Capa_1" xmlns="http://www.w3.org/2000/svg" xmlns:xlink="http://www.w3.org/1999/xlink" x="0px" y="0px"
	 width="164.75px" height="157.652px" viewBox="0 0 164.75 157.652" enable-background="new 0 0 164.75 157.652"
	 xml:space="preserve">
<path fill="#ff0400" d="M164.75,77.375c0,47.232-31.75,73-79.25,78.75C38.61,161.8,0,123.876,0,76.644
	c0-47.23,36.914-78.208,84.083-75.77C132.438,3.375,164.75,30.143,164.75,77.375z"/>
<g>
	<path fill="#4F8E3A" d="M78.559,71.9c1.545-1.885,2.721-5.078,6.521-7.291c4.104-2.391,9.316-15.106,12.797-16.938
		c-1.289,2.725-2.564,7.768-3.92,14.502c-1.229,6.104-6.342,11.109-6.541,13.008c-0.123,1.779,1.143,2.874,2.395,4.351
		c4.41,5.521,7.906,6.601,13.199,9.687c-5.754,2.194-12.475-1.3-17.666-3.816c-3.08-1.491-4.287-0.163-7.551,3.622
		c-2.008,2.325-4.059,7.668-5.744,10.307c-1.186-6.672-0.816-9.152,0.361-14.044c0.484-2.014,4.404-4.886,3.828-6.1
		c-0.826-1.879-7.252-3.016-9.051-4.166c-2.639-1.687-2.492-6.408-7.395-9.838c7.023,0.31,8.893,4.879,12.303,5.331
		C74.209,70.794,76.209,70.82,78.559,71.9z"/>
	<g>
		<path fill="#3A6331" d="M79.638,72.531c1.917-2.577,3.312-5.003,6.073-6.842c1.445-0.962,2.488-2.258,3.53-3.626
			c3.017-3.959,5.014-10.525,9.267-13.312c-0.57-0.57-1.14-1.141-1.71-1.71c-1.817,4.139-2.739,8.604-3.678,13.006
			c-1.178,5.523-4.264,9.087-6.636,13.965c-1.425,2.93,1.906,5.765,3.528,7.695c3.312,3.942,7.989,6.097,12.367,8.591
			c0.1-0.762,0.199-1.523,0.298-2.285c-5.458,1.625-10.511-0.713-15.375-3.044c-2.041-0.979-3.789-1.85-5.998-0.939
			C75.906,86.253,73.648,94.171,70.97,98.7c0.761,0.1,1.523,0.199,2.285,0.299c-0.781-4.708-1.628-11.281,1.616-15.323
			c1.281-1.597,3.627-3.483,2.091-5.614c-1.58-2.192-5.71-2.788-8.063-3.615c-2.139-0.752-2.814-2.98-3.735-4.823
			c-1.078-2.158-2.606-3.835-4.487-5.324c-0.294,0.711-0.589,1.422-0.884,2.134c3.917,0.366,6.36,2.204,9.475,4.292
			c2.563,1.719,6.133,1.331,8.958,2.38c1.515,0.562,2.162-1.855,0.665-2.411c-3.751-1.393-7.245-1.255-10.56-3.693
			c-2.593-1.907-5.358-2.771-8.539-3.068c-1.041-0.097-1.722,1.47-0.884,2.134c3.288,2.603,4.178,6.241,6.738,9.306
			c1.77,2.119,5.872,2.456,8.242,3.506c2.243,0.994-0.907,2.983-1.675,4.145c-0.917,1.387-1.215,2.771-1.567,4.399
			c-0.888,4.111-0.484,8.133,0.196,12.24c0.185,1.114,1.777,1.158,2.285,0.299c1.376-2.326,2.49-4.792,3.737-7.188
			c0.822-1.58,1.764-2.812,2.947-4.17c2.641-3.033,4.526-2.294,7.612-0.814c5.054,2.423,10.359,4.289,15.918,2.634
			c1.02-0.304,1.258-1.738,0.298-2.285c-3.355-1.911-6.803-3.569-9.768-6.082c-1.542-1.307-2.775-2.947-4.098-4.461
			c-2.177-2.491,0.321-4.762,1.605-6.71c4.554-6.908,4.32-15.167,7.576-22.583c0.457-1.04-0.552-2.469-1.71-1.71
			c-3.793,2.486-5.91,7.613-8.229,11.332c-1.772,2.84-3.64,4.549-6.128,6.673c-2.284,1.95-3.643,4.298-5.409,6.673
			C76.516,72.564,78.688,73.809,79.638,72.531z"/>
	</g>
</g>
<g>
	<g>
		<g>
			<path fill="#631722" d="M72.751,36.074c4.686,4.388,5.912,10.38,7.601,16.311c0.657,2.305,4.257,2.473,4.821,0
				c1.295-5.677,1.531-12.325,6.021-16.576c2.346-2.22-1.196-5.75-3.535-3.535c-5.239,4.958-5.793,12.147-7.307,18.782
				c1.607,0,3.214,0,4.821,0c-1.932-6.783-3.544-13.514-8.887-18.517C73.936,30.337,70.393,33.866,72.751,36.074L72.751,36.074z"/>
		</g>
	</g>
	<g>
		<g>
			<path fill="#631722" d="M90.688,115.085c-3.438-3.221-4.313-7.635-5.553-11.987c-0.656-2.305-4.257-2.473-4.821,0
				c-0.945,4.145-1.09,9.085-4.366,12.187c-2.346,2.221,1.196,5.75,3.535,3.535c4.028-3.813,4.488-9.289,5.652-14.392
				c-1.607,0-3.214,0-4.821,0c1.481,5.201,2.743,10.356,6.839,14.192C89.503,120.821,93.046,117.293,90.688,115.085L90.688,115.085z
				"/>
		</g>
	</g>
</g>
<g>
	<g>
		<g>
			<path fill="#631722" d="M117.058,68.603c-3.221,3.437-7.634,4.313-11.986,5.552c-2.304,0.656-2.474,4.258,0,4.821
				c4.143,0.944,9.083,1.087,12.184,4.364c2.22,2.346,5.75-1.195,3.535-3.535c-3.812-4.028-9.288-4.487-14.39-5.65
				c0,1.607,0,3.214,0,4.821c5.202-1.482,10.355-2.743,14.192-6.838C122.795,69.789,119.266,66.246,117.058,68.603L117.058,68.603z"
				/>
		</g>
	</g>
	<g>
		<g>
			<path fill="#631722" d="M48.233,84.686c3.22-3.438,7.634-4.313,11.985-5.554c2.303-0.657,2.475-4.258,0-4.821
				c-4.143-0.942-9.083-1.086-12.183-4.362c-2.22-2.346-5.75,1.195-3.535,3.535c3.811,4.028,9.287,4.488,14.389,5.648
				c0-1.607,0-3.214,0-4.821c-5.201,1.484-10.355,2.744-14.191,6.84C42.497,83.501,46.025,87.044,48.233,84.686L48.233,84.686z"/>
		</g>
	</g>
</g>
<g>
	<g>
		<path fill="#631722" d="M21.232,25.607C5.924,40.414,1.106,62.811,1.556,83.437c0.275,12.585,2.503,25.107,7.528,36.68
			c4.192,9.655,11.295,17.14,19.721,23.26c9.95,7.229,21.878,11.612,33.959,13.529c12.097,1.919,24.026-0.081,35.678-3.464
			c10.078-2.925,19.824-7.04,29.292-11.536c10.271-4.879,20.222-10.79,26.52-20.535c5.134-7.942,7.095-18.567,8.64-27.735
			c1.764-10.468,2.102-21.165,0.898-31.71c-1.047-9.17-3.563-18.104-7.883-26.275c-4.032-7.627-10.757-13.531-17.665-18.491
			C121.351,5.028,99.625-0.638,78.972,0.057C56.99,0.796,37.177,10.895,21.232,25.607c-2.375,2.19,1.17,5.718,3.535,3.535
			C45.836,9.702,72.221,1.429,100.492,6.748c13.801,2.597,27.124,8.324,38.232,16.956c9.561,7.43,15.176,16.91,18.248,28.553
			c3.416,12.948,3.144,26.907,1.103,40.049c-1.962,12.627-5.241,25.75-15.085,34.528c-8.216,7.326-19.476,11.84-29.562,15.995
			c-11.583,4.772-23.832,8.721-36.372,9.759c-15.167,1.255-30.853-3.865-43.503-12.007c-12.468-8.024-19.973-19.523-23.869-33.744
			C2.83,81.829,5.242,48.029,24.768,29.142C27.089,26.897,23.549,23.365,21.232,25.607z"/>
	</g>
</g>
</svg>
