<?xml version="1.0" encoding="utf-8"?>
<!-- Generator: Adobe Illustrator 16.0.0, SVG Export Plug-In . SVG Version: 6.00 Build 0)  -->
<!DOCTYPE svg PUBLIC "-//W3C//DTD SVG 1.1//EN" "http://www.w3.org/Graphics/SVG/1.1/DTD/svg11.dtd">
<svg version="1.1" id="Capa_1" xmlns="http://www.w3.org/2000/svg" xmlns:xlink="http://www.w3.org/1999/xlink" x="0px" y="0px"
	 width="547.462px" height="133.569px" viewBox="0 0 547.462 133.569" enable-background="new 0 0 547.462 133.569"
	 xml:space="preserve">
<g>
	<path fill="none" stroke="#fff" stroke-width="11.4735" stroke-linecap="round" stroke-miterlimit="10" d="M5.737,127.833
		c1.456-0.352,8.717-3.723,9.37-17.688c1.247-26.773-1.63-60.61-1.436-65.687c0.24-6.229,2.963,17.111,3.156,22.661
		c0.192,5.544,3.155,22.754,20.654,22.086c13.375-0.511,20.651-9.373,20.651-23.714c0-13.001-7.459-24.954-20.177-24.954
		c-14.915,0-21.129,7.266-21.129,26.582"/>
	<path fill="none" stroke="#fff" stroke-width="11.4735" stroke-linecap="round" stroke-miterlimit="10" d="M73.046,65.685
		c3.969-18.198,11.951-25.147,23.809-25.147c13.957,0,20.648,8.798,21.606,22.373c1.076,15.276-9.066,26.963-24.382,26.963
		C78.766,89.874,70.273,78.4,73.046,65.685z"/>
	<path fill="none" stroke="#fff" stroke-width="11.4735" stroke-linecap="round" stroke-miterlimit="10" d="M137.318,39.391
		c-1.623,4.302-7.457,28.972-2.484,46.372c4.973,17.402-0.479-24.286,19.981-40.35c15.295-12.004,30.601-3.062,29.26,26.583
		c-1.339,29.637-22.193,23.708-6.12-8.226c13.767-27.343,28.861-23.852,33.26-22.131c4.399,1.721,17.893,8.364,12.251,32.649
		c-2.162,9.306-7.457,12.909-11.856,18.645"/>
	<path fill="none" stroke="#fff" stroke-width="11.4735" stroke-linecap="round" stroke-miterlimit="10" d="M239.641,64.538
		c3.771-18.738,13.288-25.343,27.917-24.538c12.865,0.709,18.742,13.852,18.742,26.737s-12.453,23.93-25.339,23.93
		S236.677,79.26,239.641,64.538z"/>
	<path fill="none" stroke="#fff" stroke-width="11.4735" stroke-linecap="round" stroke-miterlimit="10" d="M348.006,5.737
		c0.098,12.334-8.625,70.494,6.885,85.667"/>
	<path fill="none" stroke="#fff" stroke-width="11.4735" stroke-linecap="round" stroke-miterlimit="10" d="M342.32,52.293
		c-3.778-16.822-40.017-22.749-40.017,15.112c0,15.875,11.38,23.808,23.044,23.234c11.663-0.572,20.173-9.173,18.835-23.712
		C342.844,52.389,343.815,58.949,342.32,52.293z"/>
	<path fill="none" stroke="#fff" stroke-width="11.4735" stroke-linecap="round" stroke-miterlimit="10" d="M365.666,67.98
		c1.045-19.221,12.736-27.823,25.902-27.823s22.086,10.452,22.086,23.614c0,13.169-12.172,26.869-25.338,26.869
		C375.151,90.64,364.951,81.125,365.666,67.98z"/>
	<path fill="none" stroke="#fff" stroke-width="11.4735" stroke-linecap="round" stroke-miterlimit="10" d="M433.157,39.296
		c-1.911,5.544-8.39,30.021-3.417,46.658c4.972,16.636,4.49-22.799,18.475-39.421c8.124-9.658,22.901-6.091,28.829,0.794
		c5.927,6.884,7.265,14.342-2.2,26.196"/>
	<path fill="none" stroke="#fff" stroke-width="11.4735" stroke-linecap="round" stroke-miterlimit="10" d="M494.459,64.346
		c7.075-23.712,18.264-25.242,30.979-23.139c10.655,1.764,19.12,11.663,15.392,28.78c-3.148,14.445-11.221,20.173-26.005,20.173
		C500.04,90.161,491.515,74.214,494.459,64.346z"/>
</g>
</svg>
